<svg xmlns="http://www.w3.org/2000/svg" width="3000" height="3000" viewBox="0 0 2250 2250.000011" preserveAspectRatio="xMidYMid meet" version="1.0"><defs><clipPath id="6f546c0765"><path d="M 116.304688 86.15625 L 2133.660156 86.15625 L 2133.660156 2103.507812 L 116.304688 2103.507812 Z M 116.304688 86.15625 " clip-rule="nonzero"></path></clipPath><clipPath id="08e1e9f158"><path d="M 469 389.554688 L 1620 389.554688 L 1620 1800.425781 L 469 1800.425781 Z M 469 389.554688 " clip-rule="nonzero"></path></clipPath><clipPath id="5727fa075c"><path d="M 0.492188 0.554688 L 1150.539062 0.554688 L 1150.539062 1411.398438 L 0.492188 1411.398438 Z M 0.492188 0.554688 " clip-rule="nonzero"></path></clipPath><clipPath id="68da625bba"><rect x="0" width="1151" y="0" height="1412"></rect></clipPath></defs><g clip-path="url(#6f546c0765)"><path fill="#231e40" d="M 2133.660156 1094.832031 C 2133.660156 1111.339844 2133.253906 1127.839844 2132.445312 1144.324219 C 2131.636719 1160.8125 2130.421875 1177.273438 2128.804688 1193.699219 C 2127.183594 1210.128906 2125.164062 1226.507812 2122.742188 1242.835938 C 2120.320312 1259.164062 2117.5 1275.425781 2114.277344 1291.617188 C 2111.058594 1307.804688 2107.441406 1323.90625 2103.429688 1339.921875 C 2099.421875 1355.933594 2095.019531 1371.839844 2090.226562 1387.636719 C 2085.433594 1403.433594 2080.257812 1419.101562 2074.695312 1434.644531 C 2069.136719 1450.1875 2063.195312 1465.585938 2056.878906 1480.835938 C 2050.5625 1496.085938 2043.875 1511.175781 2036.816406 1526.097656 C 2029.757812 1541.019531 2022.339844 1555.761719 2014.554688 1570.320312 C 2006.773438 1584.878906 1998.640625 1599.238281 1990.152344 1613.394531 C 1981.667969 1627.554688 1972.839844 1641.496094 1963.667969 1655.222656 C 1954.496094 1668.949219 1944.992188 1682.441406 1935.160156 1695.699219 C 1925.328125 1708.960938 1915.171875 1721.96875 1904.699219 1734.730469 C 1894.230469 1747.492188 1883.449219 1759.988281 1872.363281 1772.21875 C 1861.277344 1784.449219 1849.898438 1796.402344 1838.226562 1808.074219 C 1826.550781 1819.746094 1814.601562 1831.125 1802.367188 1842.210938 C 1790.136719 1853.296875 1777.640625 1864.078125 1764.882812 1874.550781 C 1752.121094 1885.023438 1739.109375 1895.175781 1725.851562 1905.007812 C 1712.59375 1914.84375 1699.097656 1924.34375 1685.375 1933.515625 C 1671.648438 1942.6875 1657.707031 1951.515625 1643.546875 1960.003906 C 1629.386719 1968.488281 1615.027344 1976.625 1600.46875 1984.40625 C 1585.910156 1992.1875 1571.171875 1999.605469 1556.246094 2006.664062 C 1541.324219 2013.722656 1526.238281 2020.410156 1510.988281 2026.726562 C 1495.734375 2033.046875 1480.339844 2038.984375 1464.796875 2044.546875 C 1449.253906 2050.105469 1433.582031 2055.285156 1417.785156 2060.074219 C 1401.988281 2064.867188 1386.085938 2069.269531 1370.070312 2073.28125 C 1354.058594 2077.292969 1337.957031 2080.90625 1321.765625 2084.128906 C 1305.574219 2087.347656 1289.316406 2090.167969 1272.988281 2092.589844 C 1256.65625 2095.015625 1240.277344 2097.035156 1223.851562 2098.652344 C 1207.421875 2100.269531 1190.964844 2101.484375 1174.476562 2102.292969 C 1157.988281 2103.105469 1141.492188 2103.507812 1124.984375 2103.507812 C 1108.476562 2103.507812 1091.976562 2103.105469 1075.488281 2102.292969 C 1059 2101.484375 1042.542969 2100.269531 1026.117188 2098.652344 C 1009.6875 2097.035156 993.308594 2095.015625 976.980469 2092.589844 C 960.652344 2090.167969 944.390625 2087.347656 928.199219 2084.128906 C 912.007812 2080.90625 895.90625 2077.292969 879.894531 2073.28125 C 863.882812 2069.269531 847.976562 2064.867188 832.179688 2060.074219 C 816.382812 2055.285156 800.714844 2050.105469 785.171875 2044.546875 C 769.628906 2038.984375 754.230469 2033.046875 738.980469 2026.726562 C 723.726562 2020.410156 708.640625 2013.722656 693.71875 2006.664062 C 678.796875 1999.605469 664.054688 1992.1875 649.496094 1984.40625 C 634.9375 1976.625 620.578125 1968.488281 606.417969 1960.003906 C 592.261719 1951.515625 578.316406 1942.6875 564.59375 1933.515625 C 550.867188 1924.34375 537.375 1914.84375 524.113281 1905.007812 C 510.855469 1895.175781 497.847656 1885.023438 485.085938 1874.550781 C 472.324219 1864.078125 459.828125 1853.296875 447.597656 1842.210938 C 435.367188 1831.125 423.414062 1819.746094 411.742188 1808.074219 C 400.066406 1796.402344 388.6875 1784.449219 377.601562 1772.21875 C 366.515625 1759.988281 355.738281 1747.492188 345.265625 1734.730469 C 334.792969 1721.96875 324.640625 1708.960938 314.804688 1695.699219 C 304.972656 1682.441406 295.46875 1668.949219 286.300781 1655.222656 C 277.128906 1641.496094 268.300781 1627.554688 259.8125 1613.394531 C 251.324219 1599.238281 243.191406 1584.878906 235.410156 1570.320312 C 227.628906 1555.761719 220.207031 1541.019531 213.148438 1526.097656 C 206.09375 1511.175781 199.40625 1496.085938 193.085938 1480.835938 C 186.769531 1465.585938 180.832031 1450.1875 175.269531 1434.644531 C 169.707031 1419.101562 164.53125 1403.433594 159.738281 1387.636719 C 154.949219 1371.839844 150.546875 1355.933594 146.535156 1339.921875 C 142.523438 1323.90625 138.910156 1307.804688 135.6875 1291.617188 C 132.46875 1275.425781 129.644531 1259.164062 127.222656 1242.835938 C 124.800781 1226.507812 122.78125 1210.128906 121.164062 1193.699219 C 119.546875 1177.273438 118.332031 1160.8125 117.523438 1144.324219 C 116.710938 1127.839844 116.304688 1111.339844 116.304688 1094.832031 C 116.304688 1078.324219 116.710938 1061.828125 117.523438 1045.339844 C 118.332031 1028.851562 119.546875 1012.394531 121.164062 995.964844 C 122.78125 979.535156 124.800781 963.15625 127.222656 946.828125 C 129.644531 930.5 132.46875 914.238281 135.6875 898.050781 C 138.910156 881.859375 142.523438 865.757812 146.535156 849.746094 C 150.546875 833.730469 154.949219 817.824219 159.738281 802.027344 C 164.53125 786.230469 169.707031 770.5625 175.269531 755.019531 C 180.832031 739.476562 186.769531 724.078125 193.085938 708.828125 C 199.40625 693.578125 206.09375 678.492188 213.148438 663.566406 C 220.207031 648.644531 227.628906 633.902344 235.410156 619.34375 C 243.191406 604.785156 251.324219 590.429688 259.8125 576.269531 C 268.300781 562.109375 277.128906 548.167969 286.300781 534.441406 C 295.46875 520.714844 304.972656 507.222656 314.804688 493.964844 C 324.640625 480.707031 334.792969 467.695312 345.265625 454.933594 C 355.738281 442.175781 366.515625 429.679688 377.601562 417.445312 C 388.6875 405.214844 400.066406 393.261719 411.742188 381.589844 C 423.414062 369.917969 435.367188 358.539062 447.597656 347.453125 C 459.828125 336.367188 472.324219 325.585938 485.085938 315.113281 C 497.847656 304.640625 510.855469 294.488281 524.113281 284.65625 C 537.375 274.820312 550.867188 265.320312 564.59375 256.148438 C 578.316406 246.976562 592.261719 238.148438 606.417969 229.660156 C 620.578125 221.175781 634.9375 213.039062 649.496094 205.257812 C 664.054688 197.476562 678.796875 190.058594 693.71875 183 C 708.640625 175.941406 723.726562 169.253906 738.980469 162.9375 C 754.230469 156.621094 769.628906 150.679688 785.171875 145.117188 C 800.714844 139.558594 816.382812 134.382812 832.179688 129.589844 C 847.976562 124.796875 863.882812 120.394531 879.894531 116.382812 C 895.90625 112.375 912.007812 108.757812 928.199219 105.539062 C 944.390625 102.316406 960.652344 99.496094 976.980469 97.074219 C 993.308594 94.652344 1009.6875 92.632812 1026.117188 91.011719 C 1042.542969 89.394531 1059 88.179688 1075.488281 87.371094 C 1091.976562 86.5625 1108.476562 86.15625 1124.984375 86.15625 C 1141.492188 86.15625 1157.988281 86.5625 1174.476562 87.371094 C 1190.964844 88.179688 1207.421875 89.394531 1223.851562 91.011719 C 1240.277344 92.632812 1256.65625 94.652344 1272.988281 97.074219 C 1289.316406 99.496094 1305.574219 102.316406 1321.765625 105.539062 C 1337.957031 108.757812 1354.058594 112.375 1370.070312 116.382812 C 1386.085938 120.394531 1401.988281 124.796875 1417.785156 129.589844 C 1433.582031 134.382812 1449.253906 139.558594 1464.796875 145.117188 C 1480.339844 150.679688 1495.734375 156.621094 1510.988281 162.9375 C 1526.238281 169.253906 1541.324219 175.941406 1556.246094 183 C 1571.171875 190.058594 1585.910156 197.476562 1600.46875 205.257812 C 1615.027344 213.039062 1629.386719 221.175781 1643.546875 229.660156 C 1657.707031 238.148438 1671.648438 246.976562 1685.375 256.148438 C 1699.101562 265.320312 1712.59375 274.820312 1725.851562 284.65625 C 1739.109375 294.488281 1752.121094 304.640625 1764.882812 315.113281 C 1777.640625 325.585938 1790.136719 336.367188 1802.371094 347.453125 C 1814.601562 358.539062 1826.550781 369.917969 1838.226562 381.589844 C 1849.898438 393.261719 1861.277344 405.214844 1872.363281 417.445312 C 1883.449219 429.679688 1894.226562 442.175781 1904.699219 454.933594 C 1915.171875 467.695312 1925.328125 480.707031 1935.160156 493.964844 C 1944.992188 507.222656 1954.496094 520.714844 1963.667969 534.441406 C 1972.839844 548.167969 1981.667969 562.109375 1990.152344 576.269531 C 1998.640625 590.429688 2006.773438 604.785156 2014.558594 619.34375 C 2022.339844 633.902344 2029.757812 648.644531 2036.816406 663.566406 C 2043.875 678.492188 2050.5625 693.578125 2056.878906 708.828125 C 2063.195312 724.078125 2069.136719 739.476562 2074.695312 755.019531 C 2080.257812 770.5625 2085.433594 786.230469 2090.226562 802.027344 C 2095.019531 817.824219 2099.421875 833.730469 2103.429688 849.742188 C 2107.441406 865.757812 2111.058594 881.859375 2114.277344 898.050781 C 2117.5 914.238281 2120.320312 930.5 2122.742188 946.828125 C 2125.164062 963.15625 2127.183594 979.535156 2128.804688 995.964844 C 2130.421875 1012.394531 2131.636719 1028.851562 2132.445312 1045.339844 C 2133.253906 1061.828125 2133.660156 1078.324219 2133.660156 1094.832031 Z M 2133.660156 1094.832031 " fill-opacity="1" fill-rule="nonzero"></path></g><g clip-path="url(#08e1e9f158)"><g transform="matrix(1, 0, 0, 1, 469, 389)"><g clip-path="url(#68da625bba)"><g clip-path="url(#5727fa075c)"><path fill="#ffffff" d="M 1106.742188 2.921875 C 1115.113281 8.78125 1120.46875 26.195312 1120.46875 47.960938 C 1120.46875 91.324219 1102.554688 143.5625 1071.582031 190.277344 C 1064.882812 200.320312 1058.6875 209.699219 1058.019531 210.871094 C 1057.183594 212.042969 1063.210938 208.859375 1071.246094 203.671875 C 1107.746094 180.0625 1125.324219 174.203125 1131.351562 183.410156 C 1135.203125 189.105469 1136.375 203.835938 1134.03125 216.730469 C 1128.675781 247.871094 1109.921875 285.710938 1083.804688 318.359375 C 1072.921875 332.089844 1041.109375 364.234375 1026.375 376.625 C 1020.179688 381.648438 1015.324219 386.167969 1015.492188 386.503906 C 1015.828125 386.671875 1025.371094 382.988281 1036.921875 377.964844 C 1082.632812 358.375 1107.578125 351.675781 1117.121094 356.867188 C 1121.976562 359.378906 1124.152344 368.253906 1122.3125 377.964844 C 1112.601562 428.527344 1064.550781 484.113281 996.574219 523.125 C 988.703125 527.644531 984.183594 530.828125 986.527344 530.324219 C 1005.78125 526.304688 1039.9375 520.78125 1050.988281 519.945312 C 1076.269531 518.101562 1083.972656 524.632812 1078.109375 543.214844 C 1071.582031 563.644531 1044.121094 595.121094 1016.664062 613.371094 C 999.085938 625.089844 969.28125 639.65625 949.859375 646.019531 L 935.460938 650.707031 L 955.550781 651.878906 C 1008.960938 655.058594 1017.835938 661.757812 1001.09375 686.035156 C 983.511719 711.652344 940.316406 734.589844 891.425781 744.132812 L 872.171875 747.984375 L 892.933594 753.339844 C 923.910156 761.378906 934.121094 767.738281 931.609375 777.617188 C 930.269531 782.808594 915.203125 797.039062 903.984375 803.570312 C 878.703125 818.636719 838.015625 829.019531 803.191406 829.019531 L 793.144531 829.019531 L 810.054688 837.558594 C 829.476562 847.269531 837.515625 853.796875 837.515625 859.824219 C 837.515625 873.21875 798.335938 891.132812 754.636719 897.832031 C 747.269531 899.003906 729.859375 899.839844 715.792969 899.839844 L 690.34375 899.839844 L 695.535156 907.542969 C 706.921875 924.117188 716.796875 936.003906 733.707031 953.585938 C 805.871094 1028.09375 901.808594 1063.417969 1071.078125 1077.652344 C 1131.351562 1082.671875 1144.414062 1085.855469 1148.933594 1096.738281 C 1157.472656 1117.332031 1126.664062 1146.128906 1084.304688 1157.347656 L 1070.074219 1161.03125 L 1087.320312 1167.226562 C 1137.714844 1185.140625 1152.953125 1203.558594 1132.023438 1221.472656 C 1116.621094 1234.53125 1089.664062 1241.730469 1060.53125 1240.558594 C 1051.15625 1240.058594 1043.957031 1240.226562 1044.625 1240.726562 C 1045.292969 1241.398438 1051.488281 1245.582031 1058.355469 1250.101562 C 1084.136719 1267.515625 1100.378906 1286.269531 1100.378906 1298.488281 C 1100.378906 1305.1875 1091.171875 1313.222656 1079.28125 1317.074219 C 1064.882812 1321.761719 1040.773438 1321.09375 1020.011719 1315.566406 C 1011.304688 1313.390625 1002.765625 1310.878906 1000.925781 1310.210938 C 999.085938 1309.539062 1001.59375 1313.726562 1007.121094 1320.589844 C 1018.671875 1334.65625 1026.375 1349.554688 1027.714844 1360.105469 C 1028.71875 1367.304688 1028.382812 1368.476562 1023.863281 1372.996094 C 1009.296875 1387.5625 966.433594 1379.359375 929.601562 1354.914062 C 924.578125 1351.566406 919.386719 1348.214844 918.214844 1347.378906 C 917.042969 1346.710938 917.882812 1349.722656 920.226562 1354.242188 C 926.753906 1367.304688 931.441406 1382.707031 931.609375 1392.585938 C 931.945312 1399.953125 931.273438 1402.296875 928.09375 1405.644531 C 919.722656 1414.6875 899.464844 1412.34375 876.191406 1399.785156 C 859.28125 1390.578125 845.71875 1379.527344 825.960938 1358.597656 L 809.21875 1340.851562 L 811.730469 1349.054688 C 813.238281 1353.574219 814.746094 1365.292969 815.246094 1375.339844 C 816.417969 1396.4375 813.90625 1404.976562 805.367188 1408.492188 C 792.308594 1413.847656 765.6875 1396.9375 743.921875 1368.976562 C 729.1875 1350.226562 722.15625 1337.667969 688.503906 1269.523438 C 671.257812 1234.53125 664.058594 1222.308594 651.835938 1207.074219 C 621.027344 1168.398438 598.257812 1157.011719 510.527344 1136.25 C 449.414062 1121.851562 411.238281 1109.296875 372.730469 1091.046875 C 272.777344 1043.832031 200.78125 962.628906 167.964844 860.496094 C 159.425781 833.371094 153.398438 806.082031 147.707031 766.398438 C 138.164062 700.765625 128.785156 675.820312 105.179688 652.378906 C 85.757812 633.125 63.488281 624.921875 30.171875 624.585938 C 9.910156 624.585938 1.371094 623.082031 0.703125 619.398438 C -0.132812 614.875 14.433594 600.644531 32.347656 588.421875 C 48.753906 577.371094 48.921875 577.203125 53.445312 565.484375 C 69.515625 523.292969 100.15625 501.863281 144.359375 502.027344 C 172.820312 502.027344 199.441406 512.242188 225.726562 533.339844 C 240.628906 545.394531 255.195312 560.964844 283.324219 595.453125 C 328.027344 650.035156 356.15625 669.960938 388.972656 669.960938 C 400.191406 669.960938 403.035156 669.289062 413.582031 664.101562 C 435.015625 653.386719 444.558594 639.65625 471.683594 580.554688 C 501.316406 515.925781 519.230469 487.460938 553.722656 450.460938 C 590.558594 411.113281 628.898438 383.152344 728.6875 323.382812 C 854.425781 247.871094 905.324219 210.367188 971.625 144.234375 C 1004.777344 111.082031 1028.550781 84.125 1058.6875 45.28125 C 1093.011719 0.746094 1097.699219 -3.441406 1106.742188 2.921875 Z M 1106.742188 2.921875 " fill-opacity="1" fill-rule="nonzero"></path></g><path fill="#ffffff" d="M 395.667969 108.738281 C 428.652344 130 456.277344 189.105469 462.976562 253.0625 L 464.984375 272.316406 L 472.351562 251.890625 C 482.898438 221.917969 486.917969 218.070312 498.136719 227.945312 C 508.179688 236.820312 519.398438 261.933594 525.425781 289.894531 C 527.9375 301.28125 528.609375 311.160156 528.609375 339.789062 C 528.609375 364.402344 529.109375 374.617188 530.28125 372.605469 C 535.808594 362.894531 549.035156 344.3125 551.378906 342.972656 C 561.425781 336.945312 573.144531 356.53125 575.488281 382.820312 L 576.324219 392.863281 L 561.757812 405.421875 C 513.875 446.945312 474.695312 505.378906 445.394531 579.546875 C 432 613.371094 417.433594 636.140625 405.046875 642.667969 C 385.789062 652.546875 358.5 637.8125 333.386719 604.160156 C 307.265625 569 294.710938 532.835938 297.386719 500.855469 C 298.894531 483.445312 303.582031 466.867188 317.980469 428.191406 C 344.101562 358.039062 357.160156 310.15625 365.195312 255.40625 C 369.046875 229.621094 372.0625 189.269531 372.0625 163.65625 C 372.0625 134.019531 374.238281 109.910156 377.25 106.394531 C 380.265625 102.710938 387.464844 103.714844 395.667969 108.738281 Z M 395.667969 108.738281 " fill-opacity="1" fill-rule="nonzero"></path></g></g></g></svg>